<svg id="presentation" xmlns="http://www.w3.org/2000/svg" width="41.407" height="41.407" viewBox="0 0 41.407 41.407">
  <g id="Grupo_570" data-name="Grupo 570" transform="translate(0.69 0.69)">
    <rect id="Ret창ngulo_623" data-name="Ret창ngulo 623" width="34.506" height="20.703" transform="translate(2.76 1.38)" fill="#23ac52"/>
    <rect id="Ret창ngulo_624" data-name="Ret창ngulo 624" width="32.435" height="20.703" transform="translate(2.76 1.38)" fill="#1a8d4c"/>
    <circle id="Elipse_32" data-name="Elipse 32" cx="2.76" cy="2.76" r="2.76" transform="translate(17.253 26.224)" fill="#cfd8dc"/>
    <path id="Caminho_147" data-name="Caminho 147" d="M203.8,407.657V404.01a4.146,4.146,0,0,1,8.281,0v3.648Z" transform="translate(-187.927 -368.321)" fill="#e91e63"/>
    <circle id="Elipse_33" data-name="Elipse 33" cx="2.76" cy="2.76" r="2.76" transform="translate(30.365 26.224)" fill="#cfd8dc"/>
    <path id="Caminho_148" data-name="Caminho 148" d="M365.933,407.657V404.01a4.146,4.146,0,0,1,8.281,0v3.648Z" transform="translate(-336.948 -368.321)" fill="#ff9801"/>
    <circle id="Elipse_34" data-name="Elipse 34" cx="2.76" cy="2.76" r="2.76" transform="translate(4.141 26.224)" fill="#cfd8dc"/>
    <path id="Caminho_149" data-name="Caminho 149" d="M41.667,407.644V404a4.146,4.146,0,0,1,8.281,0v3.648Z" transform="translate(-38.907 -368.308)" fill="#009688"/>
    <g id="Grupo_568" data-name="Grupo 568">
      <path id="Caminho_150" data-name="Caminho 150" d="M8.913,7.533H46.179a1.38,1.38,0,0,1,1.38,1.38h0a1.38,1.38,0,0,1-1.38,1.38H8.913a1.38,1.38,0,0,1-1.38-1.38h0A1.38,1.38,0,0,1,8.913,7.533Z" transform="translate(-7.533 -7.533)" fill="#607d8b"/>
      <path id="Caminho_151" data-name="Caminho 151" d="M8.913,263.533H46.179a1.38,1.38,0,0,1,1.38,1.38h0a1.38,1.38,0,0,1-1.38,1.38H8.913a1.38,1.38,0,0,1-1.38-1.38h0A1.38,1.38,0,0,1,8.913,263.533Z" transform="translate(-7.533 -242.83)" fill="#607d8b"/>
    </g>
    <g id="Grupo_569" data-name="Grupo 569">
      <path id="Caminho_152" data-name="Caminho 152" d="M8.877,7.533H44.145a1.344,1.344,0,0,1,1.344,1.344v.072a1.344,1.344,0,0,1-1.344,1.344H8.877A1.344,1.344,0,0,1,7.533,8.949V8.877A1.344,1.344,0,0,1,8.877,7.533Z" transform="translate(-7.533 -7.533)" fill="#cfd8dc"/>
      <path id="Caminho_153" data-name="Caminho 153" d="M8.877,263.533H44.145a1.344,1.344,0,0,1,1.344,1.344v.072a1.344,1.344,0,0,1-1.344,1.344H8.877a1.344,1.344,0,0,1-1.344-1.344v-.072A1.344,1.344,0,0,1,8.877,263.533Z" transform="translate(-7.533 -242.83)" fill="#cfd8dc"/>
    </g>
    <path id="Caminho_154" data-name="Caminho 154" d="M269.776,149.613v4.575l-3.43,1.456a4.95,4.95,0,0,1-1.277.352l2.636-1.118v-4.389Z" transform="translate(-244.241 -138.123)" fill="#f57c00"/>
    <path id="Caminho_155" data-name="Caminho 155" d="M195.705,150.49v4.389L193.069,156a5.386,5.386,0,0,1-2.905-.352l-3.43-1.456v-4.575l4.486,1.9.876.373a.366.366,0,0,0,.317,0Z" transform="translate(-172.242 -138.124)" fill="#ff9801"/>
    <path id="Caminho_156" data-name="Caminho 156" d="M161.752,80.411l-2.077.883-1.077.455-5.362,2.277a.366.366,0,0,1-.317,0l-5.362-2.277L144.4,80.411a.558.558,0,0,1-.1-.911.385.385,0,0,1,.1-.069l8.516-3.616a.365.365,0,0,1,.317,0l8.516,3.616a.554.554,0,0,1,0,.98Z" transform="translate(-133.065 -70.259)" fill="#f57c00"/>
    <path id="Caminho_157" data-name="Caminho 157" d="M159.675,92.118l-1.077.455-5.362,2.277a.366.366,0,0,1-.317,0l-5.362-2.277L144.4,91.234a.558.558,0,0,1-.1-.911l6.439-2.733a.366.366,0,0,1,.317,0l8.516,3.616a.558.558,0,0,1,.1.911Z" transform="translate(-133.065 -81.083)" fill="#ff9801"/>
    <path id="Caminho_158" data-name="Caminho 158" d="M8.224,468.333H46.87a.69.69,0,0,1,.69.69v1.38a.69.69,0,0,1-.69.69H8.224a.69.69,0,0,1-.69-.69v-1.38A.69.69,0,0,1,8.224,468.333Z" transform="translate(-7.534 -431.067)" fill="#607d8b"/>
    <path id="Caminho_159" data-name="Caminho 159" d="M8.206,468.333H44.818a.672.672,0,0,1,.672.672v1.416a.672.672,0,0,1-.672.672H8.206a.672.672,0,0,1-.672-.672v-1.416A.672.672,0,0,1,8.206,468.333Z" transform="translate(-7.534 -431.067)" fill="#cfd8dc"/>
  </g>
  <g id="Grupo_571" data-name="Grupo 571">
    <path id="Caminho_160" data-name="Caminho 160" d="M39.336,4.141a2.07,2.07,0,1,0,0-4.141H2.07a2.07,2.07,0,0,0,0,4.141h.69V20.7H2.07a2.07,2.07,0,1,0,0,4.141H39.336a2.07,2.07,0,1,0,0-4.141h-.69V4.141ZM1.38,2.07a.691.691,0,0,1,.69-.69H39.336a.69.69,0,0,1,0,1.38H2.07A.691.691,0,0,1,1.38,2.07Zm38.646,20.7a.691.691,0,0,1-.69.69H2.07a.69.69,0,1,1,0-1.38H39.336A.691.691,0,0,1,40.026,22.774Zm-2.76-2.07H4.141V4.141H37.266V20.7Z"/>
    <path id="Caminho_161" data-name="Caminho 161" d="M137.221,78.567a.69.69,0,0,0,.69-.69V74.5l2.07.88V79.5l0,.008a.688.688,0,0,0,.052.255q.071.112.146.221a.689.689,0,0,0,.223.153l3.432,1.457a6.074,6.074,0,0,0,4.717,0l3.428-1.455a.69.69,0,0,0,.223-.153q.075-.109.146-.221a.688.688,0,0,0,.052-.255V75.378l2.733-1.161a1.24,1.24,0,0,0,0-2.249l-8.516-3.619a1.088,1.088,0,0,0-.857,0l-8.516,3.619a1.208,1.208,0,0,0-.717,1.124v4.785A.69.69,0,0,0,137.221,78.567Zm13.8.473-3.006,1.276a4.7,4.7,0,0,1-3.646,0l-3.009-1.278V75.965l4.4,1.871a1.088,1.088,0,0,0,.857,0l4.4-1.871V79.04Zm-4.831-9.373,8.061,3.426-2.805,1.192-.006,0-5.249,2.231-5.249-2.231-.006,0-2.805-1.192Z" transform="translate(-125.489 -62.741)"/>
    <path id="Caminho_162" data-name="Caminho 162" d="M40.026,335.059h-1.38v-.887a4.617,4.617,0,0,0-2.59-4.1,3.451,3.451,0,1,0-4.481,0,4.617,4.617,0,0,0-2.59,4.1v.887H25.534v-.887a4.616,4.616,0,0,0-2.59-4.1,3.451,3.451,0,1,0-4.481,0,4.617,4.617,0,0,0-2.59,4.1v.887h-3.45v-.887a4.617,4.617,0,0,0-2.59-4.1,3.451,3.451,0,1,0-4.481,0,4.617,4.617,0,0,0-2.59,4.1v.887H1.38A1.382,1.382,0,0,0,0,336.439v1.38a1.382,1.382,0,0,0,1.38,1.38H40.026a1.382,1.382,0,0,0,1.38-1.38v-1.38A1.382,1.382,0,0,0,40.026,335.059Zm-8.281-7.591a2.07,2.07,0,1,1,2.07,2.07A2.07,2.07,0,0,1,31.745,327.467Zm-1.38,6.7a3.457,3.457,0,0,1,6.9,0v.887h-6.9v-.887Zm-11.732-6.7a2.07,2.07,0,1,1,2.07,2.07A2.07,2.07,0,0,1,18.633,327.467Zm-1.38,6.7a3.457,3.457,0,0,1,6.9,0v.887h-6.9v-.887Zm-11.732-6.7a2.07,2.07,0,1,1,2.07,2.07A2.07,2.07,0,0,1,5.521,327.467Zm-1.38,6.7a3.36,3.36,0,0,1,3.451-3.253,3.36,3.36,0,0,1,3.451,3.253v.887h-6.9Zm-2.76,3.648v-1.38H40.026v1.38Z" transform="translate(0 -297.793)"/>
  </g>
</svg>
